# xmcd CD database file
#
# Track frame offsets:
#	150
#	17518
#	37604
#	54180
#	78559
#	97825
#	116028
#	131217
#
# Disc length: 1989 seconds
#
# Revision: 0
# Processed by: cddbd v1.5.2PL0 Copyright (c) Steve Scherf et al.
# Submitted via: CDex 1.51
#
DISCID=5507c308
DTITLE=Varios - Heavenly Voices
DYEAR=2007
DGENRE=New Age
TTITLE0=Sasha y Shawna - Per Te
TTITLE1=Sasha y Shawna - I Know It's Real
TTITLE2=Ryland Angel - Find a way 2 u
TTITLE3=Ryland Angel - Broken Heart
TTITLE4=Giorgia Fumanti - Peace of Heaven
TTITLE5=Giorgia Fumanti - Campi D'oro
TTITLE6=Celtic Woman - Beyond the sea
TTITLE7=Celtic Woman - The soft Goodbye
EXTD=YEAR: 2007
EXTT0=
EXTT1=
EXTT2=
EXTT3=
EXTT4=
EXTT5=
EXTT6=
EXTT7=
PLAYORDER=
